<svg xmlns="http://www.w3.org/2000/svg" width="512" height="512" viewBox="0 0 512 512"><path style="fill-rule:nonzero;fill:#5100ff;fill-opacity:1;stroke-width:18;stroke-linecap:square;stroke-linejoin:bevel;stroke:#000;stroke-opacity:1;stroke-miterlimit:10" d="m578.302 1670.784 10.01 41.24 15.164 39.677 19.986 37.353 24.428 34.247 28.592 30.691 32.2 26.753 35.27 22.241 37.58 17.367 39.4 12.11 40.683 6.68 41.118 1.231 40.788-4.407 39.834-9.802 37.978-15.18 35.947-20.195 32.877-24.844 29.598-29.234 25.538-32.946 21.114-36.156 16.117-38.584 11.486-40.58 5.794-41.899.677-42.47-4.72-42.177-9.992-41.239-15.164-39.643-19.743-37.214-24.705-34.42-28.332-30.726-32.217-26.77-35.254-22.242-37.77-17.106-39.434-12.336-40.684-6.68-40.84-1.005-40.805 4.372-39.817 9.854-38.255 14.938-35.948 20.212-32.842 25.07-29.424 28.938-25.52 32.963-21.115 36.156-16.378 38.62-11.19 40.77-6.037 41.743-.694 42.453Zm251.842-1230.46-.729-4.13-.989-4.267-.936-4.06-1.163-4.06-1.37-3.973-1.388-3.973-1.631-3.973-1.805-3.903-1.821-3.904-1.805-3.695-2.255-3.834-1.978-3.626-2.429-3.331-2.22-3.644-2.637-3.279-2.638-3.296-2.602-3.296-2.863-3.245-3.036-2.984-2.74-2.81-3.245-2.95-3.21-2.724-3.175-2.498-3.4-2.689-3.349-2.238-3.608-2.429-3.54-1.96-3.573-2.204-3.748-1.926-3.695-1.682-3.713-1.7-3.92-1.666-3.887-1.44-3.852-1.197-4.06-1.18-4.024-.902-4.025-.954-4.008-.694-4.199-.694-3.938-.469-4.129-.19-4.112-.244-4.077.018-4.129.035-4.025.242-4.268.278-3.956.711-3.99.469-207.74 36.624-3.92.92-4.216.746-3.87 1.145-3.886 1.162-7.668 2.741-3.834 1.648-3.8 1.596-3.764 1.822-3.488 2.047-3.73 2.048-3.452 2.272-3.245 2.204-3.452 2.498-3.21 2.429-3.157 2.689-3.123 2.915-3.106 2.914-2.914 2.828-2.637 3.054-2.828 3.33-2.637 3.054-2.325 3.47-2.603 3.28-2.081 3.66-2.343 3.47-1.873 3.626-2.047 3.886-1.84 3.609-1.613 3.816-1.561 4.025-1.545 4.025-1.353 3.99-1.11 3.956-1.093 4.216-.868 3.921-.884 4.13-.59 4.337-.66 4.129-.364 4.285-.156 4.25-.139 4.286.035 4.216.07 4.198.294 4.216.278 4.164.763 4.32.52 4.164 143.722 815.12.607 2.22.416 2.29.625 2.255.833 2.204.798 1.96 1.058 2.169 1.041 1.943 1.024 1.908 1.231 1.909 1.232 1.926 1.492 1.821 1.44 1.874 1.423 1.648 1.665 1.562 1.58 1.387 1.89 1.527 1.805 1.353 1.804 1.076 1.804 1.336 2.013 1.04 1.995 1.094 2.203.763 1.943.816 2.152.59 2.116.555 2.169.555 2.325.278 2.099.364 2.29.07 2.03.103 2.255-.173 2.256-.156 2.22-.156 2.187-.625 1.995-.347 2.134-.607 2.186-.625 2.134-.85 1.873-.78 2.1-1.11 1.839-1.025 1.839-1.249 1.839-1.266 1.752-1.51 1.839-1.249 1.492-1.683 1.579-1.44 1.51-1.665 4.718-5.552 4.927-5.552 4.945-5.36 4.98-5.327 5.221-5.152 5.24-5.17 5.482-4.962 5.274-4.685 5.76-4.77 5.535-4.737 5.829-4.303 5.777-4.58 5.83-4.32 5.864-4.112 6.141-3.851 6.072-4.147 6.177-3.678 6.384-3.712 6.211-3.453 6.42-3.47 6.47-3.261 6.455-3.28 6.731-3.036 6.54-2.81 6.767-2.828 6.593-2.585 6.835-2.377 6.853-2.36 6.836-2.411 6.94-1.908 7.13-1.96 6.957-1.961 6.975-1.7 7.009-1.458 7.252-1.284 7.044-1.249 7.06-1.25 7.287-1.04 7.13-.798 7.218-.538 7.165-.572 7.2-.33 7.2-.312 7.252-.122 7.287.122 7.287.138 7.113.382 7.321.364 1.857.14 1.578-.035 1.857.121 1.735-.295 1.821-.087 1.735-.312 1.787-.312 1.752-.313 1.735-.537 1.7-.52 1.527-.504 1.7-.538 1.7-.763 1.666-.764 1.44-.988 1.649-.746 1.457-.972 1.353-1.162 1.457-.955 1.354-1.197 1.405-1.18 1.37-1.162 1.128-1.405 1.37-1.18 1.111-1.353 1.093-1.631 1.11-1.353.885-1.579 1.059-1.579.867-1.561.868-1.579.642-1.51.798-1.804.59-1.735.624-1.77.382-1.682.364-1.735.59-1.735.156-1.926.364-1.717.122-1.891.104-1.909.173-1.648-.121-1.891-.087-1.84-.104-1.873-.33-1.839-.312-1.804Zm967.411 1345.052 3.921-.92 4.199-.728 3.886-1.163 3.886-1.145 3.834-1.388 3.834-1.37 3.835-1.631 3.799-1.596 3.765-1.84 3.487-2.03 3.713-2.064 3.47-2.272 3.244-2.204 3.452-2.498 3.193-2.429 3.175-2.672 3.105-2.914 3.123-2.88 2.915-2.88 2.637-3.054 2.828-3.314 2.637-3.07 2.307-3.47 2.603-3.28 2.099-3.66 2.342-3.435 1.874-3.643 2.047-3.904 1.839-3.609 1.613-3.8 1.562-4.041 1.544-4.025 1.353-3.99 1.093-3.94 1.093-4.232.885-3.904.885-4.146.572-4.32.66-4.147.381-4.285.139-4.25.139-4.269-.018-4.215-.069-4.216-.295-4.199-.295-4.18-.763-4.32-.503-4.147-37.908-214.992-.937-4.077-.729-4.112-1.197-4.233-1.162-4.06-1.371-3.973-1.423-3.973-1.596-3.973-1.579-3.938-1.821-3.904-2.03-3.66-1.995-3.644-2.238-3.591-2.221-3.591-2.446-3.592-2.394-3.33-2.638-3.297-2.827-3.262-2.811-3.018-2.828-3.02-3.001-3-3.21-2.725-3.001-2.758-3.436-2.69-3.157-2.497-3.609-2.43-3.33-2.237-3.557-2.186-3.8-2.17-3.487-1.751-3.748-1.891-3.92-1.666-3.887-1.44-3.869-1.405-3.903-1.458-4.06-.936-3.834-1.18-3.99-.729-4.234-.885-3.938-.503-4.164-.433-4.146-.434-4.164-.226-4.077.018-4.094.017-4.025.26-4.008.486-4.25.503-3.956.694-449.398 79.251-1.735.313-1.787.295-1.7.537-1.735.538-1.717.538-1.475.729-1.666.746-1.683.763-1.405.989-1.7.763-1.405.955-1.406 1.162-1.405.954-1.405 1.215-1.353 1.162-1.336 1.405-1.18 1.163-1.11 1.37-1.145 1.354-1.059 1.63-1.11 1.354-.885 1.596-1.058 1.579-.85 1.578-.625 1.735-.867 1.544-.573 1.77-.624 1.77-.59 1.735-.59 1.77-.382 1.682-.364 1.735-.156 1.891-.365 1.718-.121 1.89-.104 1.91.052 1.613.104 1.89.104 1.84.104 1.856.312 1.839.33 1.822.33 1.839.312 1.804.555 1.787.746 1.77.503 1.544.746 1.752 2.863 7.01 2.758 6.783 2.603 7.095 2.62 7.044 2.376 7.096 2.169 7.165 2.186 7.13 1.943 7.166 1.943 7.217 1.51 7.235 1.752 7.426 1.301 7.32 1.267 7.288 1.336 7.512 1.075 7.356.85 7.373.625 7.391.676 7.668.59 7.391.209 7.53.19 7.46.157 7.478-.053 7.338-.242 7.547-.313 7.339-.468 7.599-.729 7.425-.763 7.426-.937 7.443-1.006 7.217-1.18 7.53-1.197 7.251-1.666 7.34-1.44 7.303-1.7 7.113-1.926 7.2-2.134 7.183-2.15 7.2-2.17 6.957-2.359 7.217-2.446 6.784-2.828 7.078-2.655 6.819-2.862 6.852-3.175 6.68-3.14 6.68-3.349 6.696-3.383 6.454-1.024 2.065-.763 2.03-1.023 2.047-.73 2.255-.52 2.186-.503 2.204-.538 2.238-.295 2.134-.26 2.411-.07 2.151-.017 2.36.174 2.29.173 2.325.157 2.116.399 2.238.624 2.256.607 2.255.625 2.238.798 1.96.833 2.221 1.023 1.944 1.041 2.134 1.284 1.908 1.232 1.908 1.232 1.874 1.405 1.648 1.492 1.874 1.631 1.561 1.666 1.597 1.578 1.353 1.822 1.336 1.839 1.318 2.03 1.301 1.804 1.076 1.978 1.076 1.978.815 2.203.78 2.169.816 1.943.59 2.325.52 2.134.348 2.082.347 2.324.277 2.082.087 2.256.07 2.255-.157 2.22-.399 2.222-.139Zm0 0" transform="scale(.22515)"/><path style="fill-rule:nonzero;fill:#5100ff;fill-opacity:1;stroke-width:18;stroke-linecap:square;stroke-linejoin:bevel;stroke:#000;stroke-opacity:1;stroke-miterlimit:10" d="m892.063 429.411-1.353-6.35-1.301-6.107-1.561-6.35-1.996-5.968-1.96-6.002-2.169-5.969-2.203-5.95-2.62-5.882-2.828-5.62-2.793-5.622-3.036-5.587-3.227-5.551-3.435-5.274-3.66-5.24-3.87-5.17-3.834-4.962-4.008-4.719-4.233-4.667-4.441-4.597-4.424-4.424-4.615-4.32-4.806-4.112-4.98-3.8-4.978-3.851-4.98-3.574-5.343-3.314-5.326-3.279-5.327-3.053-5.517-3.02-5.69-2.55-5.656-2.532-5.864-2.256-5.83-2.255-5.777-1.805-6.003-1.734-5.933-1.545-6.142-1.283-6.09-1.059-6.072-1.023-6.228-.555-6.02-.573-6.211-.33-6.107-.086-6.124.156-6.298.364-6.038.607-6.245.642-5.917 1.041-207.74 36.624-6.176 1.093-5.881 1.492-6.09 1.545-5.829 1.77-5.76 1.942-5.76 2.169-5.708 2.446-5.673 2.62-5.43 2.62-5.379 3.036-5.36 3.088-5.31 3.296-5.065 3.488-5.049 3.678-4.997 3.695-4.753 4.13-4.476 4.093-4.476 4.303-4.442 4.355-4.198 4.719-4.147 4.719-3.92 4.91-3.661 4.91-3.644 5.083-3.4 5.326-3.158 5.24-3.105 5.5-2.863 5.655-2.863 5.69-2.376 5.813-2.377 5.829-2.169 5.795-2.117 6.037-1.648 6.124-1.648 6.177-1.388 6.141-1.162 6.315-.954 6.28-.92 6.281-.52 6.211-.434 6.42-.226 6.401-.034 6.35.208 6.315.434 6.229.693 6.506.642 6.228 1.128 6.385 202.83 1150.272 2.429 12.509 2.863 12.422 3.088 12.387 3.504 12.3 3.956 12.006 4.39 11.937 4.788 11.85 4.996 11.571 5.448 11.52 5.864 11.416 6.298 11.086 6.454 10.878 6.835 10.548 7.096 10.48 7.703 10.183 7.634 9.924 8.275 9.611 8.293 9.56 8.849 9.039 9.038 8.761 9.248 8.467 9.386 8.223 9.785 7.911 10.166 7.374 10.15 7.39 10.513 6.819 10.67 6.367 10.843 6.055 11.034 5.847 11.208 5.517 11.502 4.805 11.52 4.771 11.607 4.078 11.85 4.025 11.918 3.313 11.937 3.088 12.023 2.55 12.196 2.308 12.388 1.84 12.04 1.405 12.44.867 12.352.642 12.3.156 12.215-.26 12.37-.78 12.283-1.198 12.214-1.457 12.179-1.909 854.034-150.591 6.159-1.093 5.881-1.51 6.09-1.526 5.846-1.77 5.76-1.943 5.743-2.186 5.708-2.446 5.69-2.62 5.413-2.62 5.379-3.036 5.378-3.07 5.291-3.297 5.084-3.487 5.048-3.678 4.997-3.713 4.736-4.13 4.494-4.076 4.476-4.32 4.441-4.337 4.181-4.72 4.147-4.736 3.938-4.91 3.66-4.892 3.627-5.1 3.4-5.327 3.175-5.24 3.106-5.5 2.862-5.655 2.863-5.69 2.377-5.795 2.377-5.847 2.151-5.795 2.134-6.02 1.648-6.141 1.648-6.177 1.388-6.124 1.163-6.333.954-6.28.92-6.28.52-6.211.434-6.42.225-6.384.035-6.367-.208-6.263-.434-6.263-.694-6.506-.607-6.194-1.145-6.42-37.891-214.991-1.093-6.16-1.596-6.297-1.527-6.072-1.77-6.263-1.96-6.02-2.203-5.951-2.412-5.916-2.568-5.673-2.637-5.882-3.001-5.586-3.054-5.57-3.261-5.551-3.4-5.292-3.661-5.24-3.61-4.978-4.041-4.928-4.078-4.944-4.215-4.667-4.234-4.632-4.614-4.372-4.58-4.112-4.824-4.112-4.788-4.077-4.98-3.609-5.204-3.764-5.118-3.349-5.378-3.261-5.5-3.037-5.517-2.775-5.69-2.759-5.691-2.55-5.604-2.29-5.83-2.048-6.002-1.96-6.003-1.752-5.951-1.562-6.124-1.284-6.09-1.04-6.072-.799-6.02-.832-6.229-.538-6.21-.33-6.108.139-6.072.156-6.124.104-6.263.642-5.986.833-6.228.867-461.039 81.281-6.176 1.093-5.986.816-6.263.416-6.072.365-6.124.121-6.367-.035-5.986-.347-6.159-.347-6.28-.746-6.055-.832-6.142-1.267-5.899-1.336-6.159-1.457-5.707-1.596-6.055-1.978-5.83-2.03-5.829-2.273-5.69-2.515-5.466-2.794-5.517-2.775-5.551-3.28-5.292-3.053-5.187-3.54-5.153-3.59-4.997-3.8-5.014-3.834-4.58-4.112-4.84-4.337-4.407-4.372-4.407-4.407-4.268-4.91-4.025-4.701-3.834-4.945-3.869-5.205-3.4-5.274-3.435-5.274-3.227-5.309-3.21-5.517-2.828-5.621-2.845-5.847-2.429-5.916-2.377-5.933-2.22-5.968-1.96-5.986-1.736-6.055-1.787-6.263-1.301-6.124-1.128-6.367Zm0 0" transform="scale(.22515)"/><path style="fill-rule:nonzero;fill:#000;fill-opacity:1;stroke-width:18;stroke-linecap:square;stroke-linejoin:bevel;stroke:#000;stroke-opacity:1;stroke-miterlimit:10" d="m954.78 1999.847 854.035-150.591 6.159-1.093 5.881-1.51 6.09-1.526 5.846-1.77 5.76-1.943 5.743-2.186 5.708-2.446 5.69-2.62 5.413-2.62 5.379-3.036 5.378-3.07 5.291-3.297 5.084-3.487 5.048-3.678 4.997-3.713 4.736-4.13 4.494-4.076 4.476-4.32 4.441-4.337 4.181-4.72 4.147-4.736 3.938-4.91 3.66-4.892 3.627-5.1 3.4-5.327 3.175-5.24 3.106-5.5 2.862-5.655 2.863-5.69 2.377-5.795 2.377-5.847 2.151-5.795 2.134-6.02 1.648-6.141 1.648-6.177 1.388-6.124 1.163-6.333.954-6.28.92-6.28.52-6.211.434-6.42.225-6.384.035-6.367-.208-6.263-.434-6.263-.694-6.506-.607-6.194-1.145-6.42-37.891-214.991-1.093-6.16-1.596-6.297-1.527-6.072-1.77-6.263-1.96-6.02-2.203-5.951-2.412-5.916-2.568-5.673-2.637-5.882-3.001-5.586-3.054-5.57-3.261-5.551-3.4-5.292-3.661-5.24-3.61-4.978-4.041-4.928-4.078-4.944-4.215-4.667-4.234-4.632-4.614-4.372-4.58-4.112-4.824-4.112-4.788-4.077-4.98-3.609-5.204-3.764-5.118-3.349-5.378-3.261-5.5-3.037-5.517-2.775-5.69-2.759-5.691-2.55-5.604-2.29-5.83-2.048-6.002-1.96-6.003-1.752-5.951-1.562-6.124-1.284-6.09-1.04-6.072-.799-6.02-.832-6.229-.538-6.21-.33-6.108.139-6.072.156-6.124.104-6.263.642-5.986.833-6.228.867-461.039 81.281-6.176 1.093-5.986.816-6.263.416-6.072.365-6.124.121-6.367-.035-5.986-.347-6.159-.347-6.28-.746-6.055-.832-6.142-1.267-5.899-1.336-6.159-1.457-5.707-1.596-6.055-1.978-5.83-2.03-5.829-2.273-5.69-2.515-5.466-2.794-5.517-2.775-5.551-3.28-5.292-3.053-5.187-3.54-5.153-3.59-4.997-3.8-5.014-3.834-4.58-4.112-4.84-4.337-4.407-4.372-4.407-4.407-4.268-4.91-4.025-4.701-3.834-4.945-3.869-5.205-3.4-5.274-3.435-5.274-3.227-5.309-3.21-5.517-2.828-5.621-2.845-5.847-2.429-5.916-2.377-5.933-2.22-5.968-1.96-5.986-1.736-6.055-1.787-6.263-1.301-6.124-1.128-6.367-131.09-743.537-1.354-6.35-1.301-6.107-1.561-6.35-1.996-5.968-1.96-6.002-2.169-5.969-2.203-5.95-2.62-5.882-2.828-5.62-2.793-5.622-3.036-5.587-3.227-5.551-3.435-5.274-3.66-5.24-3.87-5.17-3.834-4.962-4.008-4.719-4.233-4.667-4.441-4.597-4.424-4.424-4.615-4.32-4.806-4.112-4.98-3.8-4.978-3.851-4.98-3.574-5.343-3.314-5.326-3.279-5.327-3.053-5.517-3.02-5.69-2.55-5.656-2.532-5.864-2.256-5.83-2.255-5.777-1.805-6.003-1.734-5.933-1.545-6.142-1.283-6.09-1.059-6.072-1.023-6.228-.555-6.02-.573-6.211-.33-6.107-.086-6.124.156-6.298.364-6.038.607-6.245.642-5.917 1.041-207.74 36.624-6.176 1.093-5.881 1.492-6.09 1.545-5.829 1.77-5.76 1.942-5.76 2.169-5.708 2.446-5.673 2.62-5.43 2.62-5.379 3.036-5.36 3.088-5.31 3.296-5.065 3.488-5.049 3.678-4.997 3.695-4.753 4.13-4.476 4.093-4.476 4.303-4.442 4.355-4.198 4.719-4.147 4.719-3.92 4.91-3.661 4.91-3.644 5.083-3.4 5.326-3.158 5.24-3.105 5.5-2.863 5.655-2.863 5.69-2.376 5.813-2.377 5.829-2.169 5.795-2.117 6.037-1.648 6.124-1.648 6.177-1.388 6.141-1.162 6.315-.954 6.28-.92 6.281-.52 6.211-.434 6.42-.226 6.401-.034 6.35.208 6.315.434 6.229.693 6.506.642 6.228 1.128 6.385 202.83 1150.272 2.429 12.509 2.863 12.422 3.088 12.387 3.504 12.3 3.956 12.006 4.39 11.937 4.788 11.85 4.996 11.571 5.448 11.52 5.864 11.416 6.298 11.086 6.454 10.878 6.835 10.548 7.096 10.48 7.703 10.183 7.634 9.924 8.275 9.611 8.293 9.56 8.849 9.039 9.038 8.761 9.248 8.467 9.386 8.223 9.785 7.911 10.166 7.374 10.15 7.39 10.513 6.819 10.67 6.367 10.843 6.055 11.034 5.847 11.208 5.517 11.502 4.805 11.52 4.771 11.607 4.078 11.85 4.025 11.918 3.313 11.937 3.088 12.023 2.55 12.196 2.308 12.388 1.84 12.04 1.405 12.44.867 12.352.642 12.3.156 12.215-.26 12.37-.78 12.283-1.198 12.214-1.457Zm0 0" transform="scale(.22515)"/><path style="fill-rule:nonzero;fill:#ffeb32;fill-opacity:1;stroke-width:18;stroke-linecap:square;stroke-linejoin:bevel;stroke:#000;stroke-opacity:1;stroke-miterlimit:10" d="m1797.555 1785.376 3.921-.92 4.199-.728 3.886-1.163 3.886-1.145 3.834-1.388 3.834-1.37 3.835-1.631 3.799-1.596 3.765-1.84 3.487-2.03 3.713-2.064 3.47-2.272 3.244-2.204 3.452-2.498 3.193-2.429 3.175-2.672 3.105-2.914 3.123-2.88 2.915-2.88 2.637-3.054 2.828-3.314 2.637-3.07 2.307-3.47 2.603-3.28 2.099-3.66 2.342-3.435 1.874-3.643 2.047-3.904 1.839-3.609 1.613-3.8 1.562-4.041 1.544-4.025 1.353-3.99 1.093-3.94 1.093-4.232.885-3.904.885-4.146.572-4.32.66-4.147.381-4.285.139-4.25.139-4.269-.018-4.215-.069-4.216-.295-4.199-.295-4.18-.763-4.32-.503-4.147-37.908-214.992-.937-4.077-.729-4.112-1.197-4.233-1.162-4.06-1.371-3.973-1.423-3.973-1.596-3.973-1.579-3.938-1.821-3.904-2.03-3.66-1.995-3.644-2.238-3.591-2.221-3.591-2.446-3.592-2.394-3.33-2.638-3.297-2.827-3.262-2.811-3.018-2.828-3.02-3.001-3-3.21-2.725-3.001-2.758-3.436-2.69-3.157-2.497-3.609-2.43-3.33-2.237-3.557-2.186-3.8-2.17-3.487-1.751-3.748-1.891-3.92-1.666-3.887-1.44-3.869-1.405-3.903-1.458-4.06-.936-3.834-1.18-3.99-.729-4.234-.885-3.938-.503-4.164-.433-4.146-.434-4.164-.226-4.077.018-4.094.017-4.025.26-4.008.486-4.25.503-3.956.694-449.398 79.251-1.735.313-1.787.295-1.7.537-1.735.538-1.717.538-1.475.729-1.666.746-1.683.763-1.405.989-1.7.763-1.405.955-1.406 1.162-1.405.954-1.405 1.215-1.353 1.162-1.336 1.405-1.18 1.163-1.11 1.37-1.145 1.354-1.059 1.63-1.11 1.354-.885 1.596-1.058 1.579-.85 1.578-.625 1.735-.867 1.544-.573 1.77-.624 1.77-.59 1.735-.59 1.77-.382 1.682-.364 1.735-.156 1.891-.365 1.718-.121 1.89-.104 1.91.052 1.613.104 1.89.104 1.84.104 1.873.312 1.822.33 1.822.33 1.839.312 1.804.555 1.787.746 1.77.503 1.544.746 1.752 2.863 7.01 2.758 6.783 2.603 7.095 2.62 7.044 2.376 7.096 2.169 7.165 2.186 7.13 1.943 7.166 1.943 7.217 1.51 7.235 1.752 7.426 1.301 7.32 1.267 7.288 1.336 7.512 1.075 7.356.85 7.373.625 7.391.676 7.668.59 7.391.209 7.53.19 7.46.157 7.478-.053 7.338-.242 7.547-.313 7.339-.468 7.599-.729 7.425-.763 7.426-.937 7.443-1.006 7.217-1.18 7.53-1.197 7.251-1.666 7.34-1.44 7.303-1.7 7.113-1.926 7.2-2.134 7.183-2.15 7.2-2.17 6.957-2.359 7.217-2.446 6.784-2.828 7.078-2.655 6.819-2.862 6.852-3.175 6.68-3.14 6.68-3.349 6.696-3.383 6.454-1.024 2.065-.763 2.03-1.023 2.047-.73 2.255-.52 2.186-.503 2.204-.538 2.238-.295 2.134-.26 2.411-.07 2.151-.017 2.36.174 2.29.173 2.325.157 2.116.399 2.238.624 2.256.607 2.255.625 2.238.798 1.96.833 2.221 1.023 1.944 1.041 2.134 1.284 1.908 1.232 1.908 1.232 1.874 1.405 1.648 1.492 1.874 1.631 1.561 1.666 1.597 1.578 1.353 1.822 1.336 1.839 1.318 2.03 1.301 1.804 1.076 1.978 1.076 1.978.815 2.203.78 2.169.816 1.943.59 2.325.52 2.134.348 2.082.347 2.324.277 2.082.087 2.256.07 2.255-.157 2.22-.399 2.222-.139Zm0 0" transform="scale(.22515)"/><path style="fill-rule:nonzero;fill:#f15137;fill-opacity:1;stroke-width:18;stroke-linecap:square;stroke-linejoin:bevel;stroke:#000;stroke-opacity:1;stroke-miterlimit:10" d="m578.302 1670.784 10.01 41.24 15.164 39.677 19.986 37.353 24.428 34.247 28.592 30.691 32.2 26.753 35.27 22.241 37.58 17.367 39.4 12.11 40.683 6.68 41.118 1.231 40.788-4.407 39.834-9.802 37.978-15.18 35.947-20.195 32.877-24.844 29.598-29.234 25.538-32.946 21.114-36.156 16.117-38.584 11.486-40.58 5.794-41.899.677-42.47-4.72-42.177-9.992-41.239-15.164-39.643-19.743-37.214-24.705-34.42-28.332-30.726-32.217-26.77-35.254-22.242-37.77-17.106-39.434-12.336-40.684-6.68-40.84-1.005-40.805 4.372-39.817 9.854-38.255 14.938-35.948 20.212-32.842 25.07-29.424 28.938-25.52 32.963-21.115 36.156-16.378 38.62-11.19 40.77-6.037 41.743-.694 42.453Zm0 0" transform="scale(.22515)"/><path style="fill-rule:nonzero;fill:#0073ce;fill-opacity:1;stroke-width:18;stroke-linecap:square;stroke-linejoin:bevel;stroke:#000;stroke-opacity:1;stroke-miterlimit:10" d="m910.037 1228.378-7.321-.364-7.113-.382-7.287-.138-7.287-.122-7.252.122-7.2.312-7.2.33-7.165.572-7.217.538-7.13.798-7.287 1.04-7.061 1.25-7.044 1.25-7.252 1.283-7.01 1.457-6.974 1.7-6.957 1.961-7.13 1.96-6.94 1.909-6.836 2.412-6.853 2.359-6.835 2.377-6.593 2.585-6.766 2.828-6.54 2.81-6.732 3.037-6.454 3.279-6.471 3.261-6.42 3.47-6.21 3.453-6.385 3.712-6.177 3.678-6.072 4.147-6.141 3.851-5.864 4.112-5.83 4.32-5.777 4.58-5.83 4.303-5.534 4.736-5.76 4.771-5.274 4.685-5.482 4.961-5.24 5.17-5.222 5.153-4.98 5.326-4.944 5.361-4.927 5.552-4.719 5.552-1.51 1.665-1.578 1.44-1.492 1.683-1.84 1.25-1.751 1.509-1.84 1.266-1.838 1.25-1.84 1.023-2.099 1.11-1.873.781-2.134.85-2.186.625-2.134.607-1.995.347-2.186.625-2.221.156-2.256.156-2.255.173-2.03-.104-2.29-.07-2.1-.363-2.324-.278-2.169-.555-2.116-.555-2.152-.59-1.943-.816-2.203-.763-1.995-1.093-2.013-1.041-1.804-1.336-1.804-1.076-1.805-1.353-1.89-1.527-1.58-1.387-1.665-1.562-1.423-1.648-1.44-1.874-1.492-1.821-1.232-1.926-1.231-1.909-1.024-1.908-1.04-1.943-1.06-2.169-.797-1.96-.833-2.204-.625-2.255-.416-2.29-.607-2.22-143.721-815.12-.52-4.164-.764-4.32-.278-4.164-.295-4.216-.07-4.198-.034-4.216.139-4.285.156-4.251.364-4.285.66-4.13.59-4.337.884-4.129.868-3.92 1.093-4.217 1.11-3.955 1.353-3.99 1.545-4.026 1.561-4.025 1.613-3.816 1.84-3.61 2.047-3.885 1.873-3.626 2.343-3.47 2.081-3.66 2.603-3.28 2.325-3.47 2.637-3.053 2.828-3.331 2.637-3.054 2.914-2.828 3.106-2.914 3.123-2.915 3.157-2.69 3.21-2.428 3.452-2.498 3.245-2.204 3.452-2.272 3.73-2.048 3.488-2.047 3.764-1.822 3.8-1.596 3.834-1.648 7.668-2.741 3.887-1.162 3.869-1.145 4.215-.746 3.921-.92 207.74-36.624 3.99-.469 3.956-.711 4.268-.278 4.025-.242 4.13-.035 4.076-.018 4.112.243 4.13.191 3.937.469 4.199.694 4.008.694 4.025.954 4.025.902 4.06 1.18 3.85 1.197 3.887 1.44 3.921 1.665 3.713 1.7 3.695 1.683 3.748 1.926 3.574 2.204 3.539 1.96 3.608 2.429 3.349 2.238 3.4 2.69 3.175 2.497 3.21 2.724 3.244 2.95 2.741 2.81 3.036 2.984 2.863 3.245 2.602 3.296 2.638 3.296 2.637 3.28 2.22 3.643 2.43 3.33 1.977 3.627 2.255 3.834 1.805 3.695 1.821 3.904 1.805 3.903 1.63 3.973 1.389 3.973 1.37 3.973 1.163 4.06.936 4.06.99 4.268.728 4.129 128.974 731.444.312 1.804.33 1.84.104 1.873.087 1.839.121 1.891-.173 1.648-.104 1.909-.122 1.89-.364 1.718-.156 1.926-.59 1.735-.364 1.735-.382 1.683-.625 1.77-.59 1.734-.797 1.805-.642 1.509-.868 1.579-.867 1.561-1.059 1.579-.884 1.579-1.11 1.353-1.094 1.63-1.11 1.354-1.37 1.18-1.128 1.405-1.371 1.163-1.405 1.18-1.354 1.196-1.457.955-1.353 1.162-1.457.972-1.649.746-1.44.988-1.665.764-1.7.763-1.7.538-1.527.503-1.7.52-1.736.538-1.752.313-1.787.312-1.735.312-1.821.087-1.735.295-1.857-.121-1.578.034Zm0 0" transform="scale(.22515)"/></svg>